Coordinates
version=1
nRows=22
nColumns=24
inDegrees=yes

Units are S.I. units (second, meters, Newtons, ...)
Angles are in degrees.

endheader
time	pelvis_tilt	pelvis_list	pelvis_rotation	pelvis_tx	pelvis_ty	pelvis_tz	hip_flexion_r	hip_adduction_r	hip_rotation_r	knee_angle_r	ankle_angle_r	subtalar_angle_r	mtp_angle_r	hip_flexion_l	hip_adduction_l	hip_rotation_l	knee_angle_l	ankle_angle_l	subtalar_angle_l	mtp_angle_l	lumbar_extension	lumbar_bending	lumbar_rotation
      0.44800000	     -0.25302227	     -1.59251105	      4.82322299	     -0.76061883	      0.89340309	      0.29963303	     28.17217105	      3.86698368	     -7.27953874	    -18.52825545	      2.66056956	     -0.26807739	      1.03210861	    -15.62001058	     -0.06690778	     -1.28477968	    -11.04680220	     20.16453607	      4.27271327	      1.48424329	    -11.43681068	      0.18629937	     -7.51284310
      0.45216667	     -0.33283704	     -1.57665054	      4.87999572	     -0.75455508	      0.89216180	      0.29970323	     28.16410236	      3.96671985	     -7.07340659	    -18.30981482	      2.51989918	     -0.55978686	      5.38254129	    -15.50393832	     -0.13950286	     -1.38877437	    -12.00114989	     20.23243710	      4.52607243	      6.88792411	    -11.29941258	      0.20006552	     -7.41764571
      0.45633333	     -0.35048784	     -1.61961223	      4.96202553	     -0.74841006	      0.89113406	      0.29976895	     28.02719469	      4.13911640	     -6.84032792	    -18.06410595	      2.30214343	     -1.02446266	      5.32492462	    -15.46012432	     -0.27886874	     -1.35322436	    -12.93954872	     20.27628684	      4.64212329	      7.00058252	    -11.22664176	      0.30083290	     -7.40071787
      0.46050000	     -0.39360799	     -1.65458760	      5.02721668	     -0.74227862	      0.89006103	      0.29988171	     27.96107700	      4.29981545	     -6.62156164	    -18.00384429	      2.11530860	     -1.46505900	      5.27587686	    -15.31824649	     -0.42299082	     -1.44602008	    -14.03004964	     20.35531763	      4.96369626	      7.18358276	    -11.12352362	      0.38939387	     -7.36698288
      0.46466667	     -0.41518975	     -1.70747277	      5.08127054	     -0.73610711	      0.88905029	      0.30000219	     27.89210804	      4.47915200	     -6.42375760	    -18.07924568	      1.92358910	     -1.95646099	      5.23380345	    -15.17539214	     -0.59196439	     -1.57120371	    -15.17318368	     20.39286163	      5.32535064	      7.47662890	    -11.05494498	      0.52650602	     -7.31680478
      0.46883333	     -0.47341300	     -1.74483938	      5.13781088	     -0.72994606	      0.88804878	      0.30014863	     27.86244277	      4.63849478	     -6.20949349	    -18.23203676	      1.68753124	     -2.44018021	      5.21227359	    -14.95080731	     -0.74213606	     -1.64070604	    -16.39395352	     20.36654853	      5.59061035	      7.77021609	    -10.92619972	      0.59801464	     -7.24681203
      0.47300000	     -0.49632769	     -1.80809652	      5.17512171	     -0.72374321	      0.88712156	      0.30032613	     27.81920846	      4.83101188	     -6.01018967	    -18.51369489	      1.44903053	     -3.00477496	      5.20284218	    -14.72994051	     -0.93449800	     -1.80525633	    -17.68426033	     20.28894792	      5.97665187	      8.26040503	    -10.84678898	      0.73874496	     -7.16007191
      0.47716667	     -0.50455637	     -1.89942391	      5.23974690	     -0.71752041	      0.88628009	      0.30051526	     27.74667224	      5.04720413	     -5.82246452	    -18.83443659	      1.24267282	     -3.59586881	      5.21732347	    -14.47075040	     -1.17602403	     -1.93375757	    -19.06935498	     20.17821606	      6.39631893	      9.28102516	    -10.77768027	      0.90283684	     -7.03700726
      0.48133333	     -0.61355211	     -1.90925765	      5.27388101	     -0.71137266	      0.88533021	      0.30065247	     27.86845947	      5.14853548	     -5.68955452	    -19.40234525	      1.06352155	     -4.01292453	      5.21981566	    -14.09593242	     -1.26972015	     -1.85235914	    -20.46004844	     19.90756127	      6.36520452	      9.49592424	    -10.59651760	      0.98444391	     -6.92545750
      0.48550000	     -0.59368155	     -2.02098954	      5.28504875	     -0.70511611	      0.88459926	      0.30097417	     27.79267810	      5.41213718	     -5.45324176	    -19.88206669	      0.82349095	     -4.68128432	      5.25694851	    -13.78533182	     -1.56090275	     -2.16459832	    -21.99731359	     19.65947405	      6.93967994	     10.63724082	    -10.55675763	      1.15419208	     -6.76203565
      0.48966667	     -0.71383351	     -2.01239182	      5.29132124	     -0.69900144	      0.88372178	      0.30118946	     27.95902684	      5.49986535	     -5.29252020	    -20.61395698	      0.70214654	     -5.08020029	      5.26793132	    -13.30169883	     -1.64052383	     -2.12387887	    -23.55743140	     19.25878467	      6.90825342	     11.02416513	    -10.36171017	      1.17151672	     -6.63091975
      0.49383333	     -0.73439973	     -2.09642063	      5.29704705	     -0.69278039	      0.88304221	      0.30148211	     27.98717189	      5.70769870	     -5.11718582	    -21.31662245	      0.61581138	     -5.61611214	      5.44104108	    -12.87762257	     -1.87650570	     -2.26807818	    -25.17732121	     18.68311291	      7.06535429	     17.97113026	    -10.27603618	      1.34568206	     -6.48205327
      0.49800000	     -0.79705455	     -2.13384143	      5.29170258	     -0.68663123	      0.88233353	      0.30176804	     28.10175048	      5.85038259	     -4.96981501	    -22.14200587	      0.63538311	     -5.97918490	      5.43810110	    -12.36655784	     -2.04113928	     -2.33096114	    -26.88088330	     18.13789214	      7.21648888	     18.03273475	    -10.14819469	      1.43167667	     -6.29104257
      0.50216667	     -0.83696263	     -2.19905885	      5.27377141	     -0.68047747	      0.88169136	      0.30209582	     28.19507277	      6.03098670	     -4.81192408	    -22.99586173	      0.68476498	     -6.38606047	      5.42905986	    -11.83256180	     -2.25138479	     -2.44645050	    -28.66342053	     17.53860857	      7.41083844	     18.17836633	    -10.04849717	      1.56807173	     -6.09018414
      0.50633333	     -0.87386728	     -2.26605321	      5.25876586	     -0.67434413	      0.88112652	      0.30243982	     28.27256317	      6.21203583	     -4.64786678	    -23.84572885	      0.81834816	     -6.72075316	      5.41995941	    -11.24772184	     -2.47120586	     -2.55225813	    -30.51196585	     16.81969801	      7.56111134	     18.33993895	     -9.94668055	      1.68260192	     -5.89678104
      0.51050000	     -0.89902394	     -2.34216067	      5.22935762	     -0.66821996	      0.88060736	      0.30280420	     28.34820002	      6.40404819	     -4.49539147	    -24.73766920	      1.00872062	     -7.02533695	      5.40392496	    -10.63761033	     -2.70712827	     -2.67622313	    -32.41492110	     16.02702045	      7.70643576	     18.55974875	     -9.86627341	      1.82191999	     -5.68094984
      0.51466667	     -0.88695949	     -2.45690151	      5.19311322	     -0.66208686	      0.88019400	      0.30321343	     28.36325334	      6.65000593	     -4.32498039	    -25.59661673	      1.24689155	     -7.37163701	      4.82724918	    -10.03152481	     -3.00904343	     -2.84931623	    -34.34930117	     15.09463170	      7.79349353	     23.46461150	     -9.82738900	      2.02002084	     -5.45520040
      0.51883333	     -0.88409304	     -2.54616516	      5.15690101	     -0.65600089	      0.87981625	      0.30358131	     28.39342137	      6.84854692	     -4.21033138	    -26.48541807	      1.59500631	     -7.50916847	      4.83728362	     -9.37290851	     -3.27193169	     -2.97079740	    -36.33656409	     14.14674858	      7.87441685	     23.50014420	     -9.78015855	      2.17272361	     -5.24359887
      0.52300000	     -0.86821776	     -2.65889011	      5.11171363	     -0.64992791	      0.87950695	      0.30397896	     28.38903977	      7.07986904	     -4.08193154	    -27.33708699	      1.97236961	     -7.66004687	      4.83723265	     -8.69404137	     -3.57100978	     -3.10606056	    -38.35338690	     13.09571545	      7.92874445	     23.56222022	     -9.75225592	      2.34735947	     -5.02142016
      0.52716667	     -0.80222027	     -2.78845965	      5.06847726	     -0.64386815	      0.87934005	      0.30435217	     28.29393895	      7.33249102	     -3.95315296	    -28.12086095	      2.41647156	     -7.79867272	      4.83706017	     -8.04302386	     -3.89405813	     -3.23092516	    -40.37921894	     11.95444962	      7.91333429	     23.60857950	     -9.79202390	      2.59364462	     -4.83726941
      0.53133333	     -0.78200170	     -2.92601914	      5.01262624	     -0.63785655	      0.87911695	      0.30477415	     28.24494544	      7.58580038	     -3.86451665	    -28.89264625	      2.83165521	     -7.88062441	      4.81571323	     -7.28401087	     -4.25449772	     -3.43654681	    -42.47819147	     10.83186674	      7.96952113	     23.70513938	     -9.76334853	      2.77590203	     -4.56419979
      0.53550000	     -0.71802828	     -3.08264273	      4.95569375	     -0.63185770	      0.87903615	      0.30517928	     28.10520846	      7.86538104	     -3.76347884	    -29.57993261	      3.30753364	     -7.94041469	      4.78359990	     -6.56032021	     -4.63726183	     -3.61543197	    -44.54843233	      9.62890753	      7.94946154	     23.80326791	     -9.80015328	      3.01957431	     -4.31456491
